<?xml version="1.0" encoding="utf-8"?><svg fill="none" viewBox="0 0 269 260" xmlns="http://www.w3.org/2000/svg"><defs /><g transform="matrix(1,0,0,1,87.214,91.497)" id="NULL Camada 3"><g id="Camada 3"><g transform="translate(50,15.25)"><animateTransform repeatCount="indefinite" type="translate" attributeName="transform" dur="6.071s" begin="0s" calcMode="spline" values="50 15.25; 50 50.25; 50 15.25; 50 50.25; 50 15.25; 50 50.25; 50 15.25; 50 50.25; 50 15.25; 50 50.25" keyTimes="0; 0.111; 0.222; 0.333; 0.444; 0.556; 0.667; 0.778; 0.889; 1" keySplines="0.167 0.167 0 1; 0.167 0 0 1; 0.167 0.167 0 1; 0.167 0 0 1; 0.167 0.167 0 1; 0.167 0 0 1; 0.167 0.167 0 1; 0.167 0 0 1; 0.167 0.167 0 1" fill="freeze" /><g transform="scale(1,1) translate(-137.214,-126.497)"><g id="Grupo 1" transform="matrix(1,0,0,1,137.214,126.497)"><path fill="#01102d" fill-opacity="1" d="M23.705,21.541L4.293,37.37L4.293,-50.03L-2.804,-50.03L-2.804,38.584L-23.704,21.541L-28.189,27.041L-0.01,50.02L-0.002,50.03L0,50.028L0.002,50.03L0.011,50.02L28.189,27.041L23.705,21.541Z" /></g></g></g></g></g><g transform="matrix(1,0,0,1,87.214,91.497)" opacity="0" id="NULL Camada 3" /><g id="Camada 2"><g transform="translate(136.314,127.63)"><g transform="rotate(0)"><animateTransform repeatCount="indefinite" type="rotate" attributeName="transform" dur="5.357s" begin="0s" calcMode="spline" values="0; -81; 140; 0" keyTimes="0; 0.4; 0.72; 1" keySplines="0.167 0.167 0 1; 0.167 0.4 0 1; 0.167 0.14 0 1" fill="freeze" /><g transform="scale(1,1) translate(-136.314,-127.63)"><g id="Grupo 22" transform="matrix(1,0,0,1,43.064,92.144)"><path fill="#01102d" fill-opacity="1" d="M13.99,4.861C11.813,10.547,7.151,13.798,1.945,11.895L4.197,6.013C6.453,6.696,8.459,5.801,9.435,3.252C10.426,0.664,9.639,-1.391,7.678,-2.142C1.757,-4.409,-0.08,11.075,-9.986,7.237C-14.927,5.345,-16.376,0.204,-14.214,-5.443C-12.067,-11.051,-7.734,-13.798,-2.658,-12.259L-4.969,-6.22C-6.818,-6.793,-8.785,-5.882,-9.725,-3.544C-10.629,-1.418,-10.187,0.596,-7.952,1.451C-2.461,3.553,-0.144,-11.657,9.503,-7.963C13.816,-6.312,16.377,-1.374,13.99,4.861Z" /></g><g id="Grupo 21" transform="matrix(1,0,0,1,58.547,69.698)"><path fill="#01102d" fill-opacity="1" d="M-9.338,-7.416C-5.866,-12.055,-1.106,-13.37,3.818,-11.259L0.019,-6.182C-1.964,-6.827,-3.903,-6.338,-5.363,-4.388C-7.325,-1.766,-6.65,1.467,-3.02,4.184C0.612,6.902,3.87,6.613,5.832,3.991C7.292,2.041,7.323,0.176,6.07,-1.653L9.869,-6.73C13.082,-2.752,13.364,2.337,9.891,6.976C5.866,12.355,-0.768,13.37,-6.617,8.992C-12.467,4.614,-13.364,-2.037,-9.338,-7.416Z" /></g><g id="Grupo 20" transform="matrix(1,0,0,1,71.806,52.892)"><path fill="#01102d" fill-opacity="1" d="M9.753,9.418L5.263,13.214L-9.753,-4.555L-5.263,-8.35L-2.932,-5.592C-3.354,-8.368,-2.497,-11.127,-0.028,-13.214L3.957,-8.499L2.77,-7.497C0.108,-5.247,-0.628,-2.865,2.272,0.566L9.753,9.418Z" /></g><g id="Grupo 19" transform="matrix(1,0,0,1,92.919,41.046)"><path fill="#01102d" fill-opacity="1" d="M2.945,6.194C5.723,4.802,7.373,1.439,5.303,-2.69C3.214,-6.857,-0.374,-7.549,-3.152,-6.156C-5.93,-4.764,-7.448,-1.514,-5.359,2.653C-3.29,6.782,0.13,7.605,2.945,6.194ZM5.24,10.774C-0.766,13.784,-7.415,11.856,-10.689,5.324C-13.981,-1.245,-11.378,-7.764,-5.372,-10.774C0.634,-13.784,7.416,-11.969,10.708,-5.4C13.982,1.132,11.284,7.745,5.24,10.774Z" /></g><g id="Grupo 18" transform="matrix(1,0,0,1,110.784,30.139)"><path fill="#01102d" fill-opacity="1" d="M-6.768,-14.29L-1.08,-15.775L6.768,14.29L1.08,15.775L-6.768,-14.29Z" /></g><g id="Grupo 17" transform="matrix(1,0,0,1,123.267,27.711)"><path fill="#01102d" fill-opacity="1" d="M-4.915,-15.028L0.915,-15.785L4.915,15.028L-0.915,15.785L-4.915,-15.028Z" /></g><g id="Grupo 16" transform="matrix(1,0,0,1,156.676,29.344)"><path fill="#01102d" fill-opacity="1" d="M-4.121,9.505C1.924,10.752,6.05,8.002,7.28,2.039C8.51,-3.924,5.835,-8.206,-0.21,-9.453L-4.282,-10.293L-8.192,8.665L-4.121,9.505ZM13.161,3.252C11.371,11.929,4.246,16.333,-4.925,14.441L-14.959,12.371L-9.038,-16.333L0.996,-14.263C10.167,-12.372,14.959,-5.467,13.161,3.252Z" /></g><g id="Grupo 15" transform="matrix(1,0,0,1,183.814,43.15)"><path fill="#01102d" fill-opacity="1" d="M-3.532,5.951C-0.824,7.474,2.887,6.959,5.151,2.933C7.435,-1.13,6.001,-4.49,3.292,-6.013C0.584,-7.536,-2.959,-6.975,-5.244,-2.913C-7.508,1.114,-6.277,4.407,-3.532,5.951ZM-6.043,10.416C-11.899,7.123,-14.023,0.533,-10.442,-5.835C-6.84,-12.24,0.02,-13.73,5.876,-10.437C11.732,-7.144,14.023,-0.509,10.421,5.896C6.84,12.265,-0.15,13.73,-6.043,10.416Z" /></g><g id="Grupo 14" transform="matrix(1,0,0,1,211.272,61.05)"><path fill="#01102d" fill-opacity="1" d="M-5.068,-18.212L-1.125,-13.741L-11.691,1.067L4.542,-7.317L8.654,-2.656L-1.715,12.313L14.264,3.704L17.986,7.924L-3.959,18.212L-8.153,13.456L1.229,-0.474L-13.764,7.096L-17.987,2.309L-5.068,-18.212Z" /></g><g id="Grupo 13" transform="matrix(1,0,0,1,225.792,91.792)"><path fill="#01102d" fill-opacity="1" d="M3.623,4.383C7.093,2.997,8.202,0.339,7.049,-2.547C5.865,-5.511,3.23,-6.673,-0.24,-5.287L-12.172,-0.521L-14.353,-5.98L7.249,-14.609L9.43,-9.15L6.739,-8.075C9.133,-7.404,11.237,-5.532,12.343,-2.763C14.353,2.267,12.51,7.163,6.545,9.546L-6.128,14.609L-8.309,9.15L3.623,4.383Z" /></g><g id="Grupo 12" transform="matrix(1,0,0,1,244.636,127.182)"><path fill="#01102d" fill-opacity="1" d="M2.104,1.264L5.776,5.867L2.006,7.982L0.01,2.533L-1.94,7.999L-5.854,5.831L-2.137,1.282L-7.927,2.272L-7.945,-2.096L-2.147,-1.197L-5.987,-5.673L-1.965,-7.999L0.031,-2.549L1.898,-7.974L5.769,-5.848L2.094,-1.172L7.926,-2.161L7.945,2.247L2.104,1.264Z" /></g><g id="Grupo 11" transform="matrix(1,0,0,1,229.81,162.573)"><path fill="#01102d" fill-opacity="1" d="M-14.024,-4.766C-11.885,-10.466,-7.245,-13.747,-2.026,-11.878L-4.239,-5.981C-6.5,-6.65,-8.5,-5.743,-9.459,-3.187C-10.433,-0.593,-9.632,1.458,-7.667,2.196C-1.731,4.423,0.003,-11.071,9.934,-7.3C14.887,-5.441,16.37,-0.31,14.246,5.351C12.136,10.973,7.82,13.748,2.734,12.243L5.006,6.188C6.859,6.749,8.82,5.825,9.745,3.481C10.634,1.349,10.178,-0.661,7.938,-1.502C2.434,-3.568,0.218,11.658,-9.452,8.028C-13.777,6.406,-16.37,1.485,-14.024,-4.766Z" /></g><g id="Grupo 10" transform="matrix(1,0,0,1,214.474,185.117)"><path fill="#01102d" fill-opacity="1" d="M9.388,7.358C5.947,12.02,1.196,13.368,-3.741,11.29L0.024,6.188C2.01,6.819,3.947,6.317,5.393,4.357C7.338,1.722,6.641,-1.506,2.992,-4.199C-0.657,-6.891,-3.912,-6.58,-5.857,-3.945C-7.303,-1.986,-7.323,-0.122,-6.058,1.699L-9.822,6.801C-13.061,2.846,-13.377,-2.242,-9.936,-6.904C-5.947,-12.31,0.68,-13.368,6.558,-9.03C12.436,-4.691,13.377,1.953,9.388,7.358Z" /></g><g id="Grupo 9" transform="matrix(1,0,0,1,201.315,202.032)"><path fill="#01102d" fill-opacity="1" d="M-9.799,-9.372L-5.334,-13.196L9.799,4.473L5.334,8.297L2.984,5.554C3.425,8.328,2.586,11.093,0.13,13.196L-3.885,8.508L-2.705,7.497C-0.058,5.23,0.663,2.843,-2.26,-0.569L-9.799,-9.372Z" /></g><g id="Grupo 8" transform="matrix(1,0,0,1,180.296,214.002)"><path fill="#01102d" fill-opacity="1" d="M-2.986,-6.173C-5.755,-4.762,-7.382,-1.388,-5.285,2.727C-3.169,6.88,0.423,7.546,3.191,6.135C5.96,4.724,7.456,1.464,5.34,-2.689C3.243,-6.804,-0.18,-7.603,-2.986,-6.173ZM-5.312,-10.738C0.674,-13.789,7.335,-11.904,10.652,-5.395C13.989,1.152,11.428,7.688,5.443,10.738C-0.543,13.789,-7.336,12.018,-10.672,5.471C-13.99,-1.038,-11.335,-7.669,-5.312,-10.738Z" /></g><g id="Grupo 7" transform="matrix(1,0,0,1,162.508,225.027)"><path fill="#01102d" fill-opacity="1" d="M6.863,14.244L1.185,15.767L-6.864,-14.244L-1.186,-15.767L6.863,14.244Z" /></g><g id="Grupo 6" transform="matrix(1,0,0,1,150.029,227.542)"><path fill="#01102d" fill-opacity="1" d="M5.015,14.997L-0.811,15.792L-5.014,-14.995L0.81,-15.791L5.015,14.997Z" /></g><g id="Grupo 5" transform="matrix(1,0,0,1,116.597,226.113)"><path fill="#01102d" fill-opacity="1" d="M4.081,-9.516C-1.972,-10.723,-6.081,-7.946,-7.271,-1.975C-8.462,3.995,-5.757,8.261,0.296,9.467L4.373,10.279L8.158,-8.703L4.081,-9.516ZM-13.16,-3.148C-11.428,-11.837,-4.331,-16.288,4.852,-14.457L14.9,-12.454L9.169,16.288L-0.88,14.286C-10.063,12.455,-14.9,5.581,-13.16,-3.148Z" /></g><g id="Grupo 4" transform="matrix(1,0,0,1,89.385,212.503)"><path fill="#01102d" fill-opacity="1" d="M3.493,-5.975C0.774,-7.48,-2.933,-6.939,-5.17,-2.898C-7.428,1.18,-5.971,4.53,-3.252,6.035C-0.534,7.54,3.007,6.956,5.264,2.878C7.502,-1.163,6.248,-4.45,3.493,-5.975ZM5.973,-10.457C11.851,-7.203,14.019,-0.626,10.48,5.766C6.921,12.195,0.071,13.731,-5.807,10.477C-11.685,7.223,-14.02,0.602,-10.461,-5.827C-6.922,-12.22,0.058,-13.731,5.973,-10.457Z" /></g><g id="Grupo 3" transform="matrix(1,0,0,1,61.751,194.728)"><path fill="#01102d" fill-opacity="1" d="M5.212,18.208L1.24,13.76L11.715,-1.111L-4.465,7.372L-8.605,2.737L1.671,-12.296L-14.255,-3.59L-18.003,-7.786L3.879,-18.207L8.102,-13.479L-1.193,0.509L13.751,-7.152L18.003,-2.392L5.212,18.208Z" /></g><g id="Grupo 2" transform="matrix(1,0,0,1,47.098,164.142)"><path fill="#01102d" fill-opacity="1" d="M-3.665,-4.363C-7.126,-2.953,-8.216,-0.288,-7.044,2.59C-5.84,5.545,-3.199,6.691,0.262,5.281L12.163,0.435L14.38,5.88L-7.165,14.653L-9.382,9.209L-6.699,8.116C-9.096,7.46,-11.212,5.602,-12.337,2.841C-14.379,-2.176,-12.57,-7.083,-6.62,-9.506L6.018,-14.653L8.236,-9.209L-3.665,-4.363Z" /></g><g id="Grupo 1" transform="matrix(1,0,0,1,28.007,128.864)"><path fill="#01102d" fill-opacity="1" d="M-2.113,-1.237L-5.816,-5.816L-2.059,-7.957L-0.027,-2.519L1.887,-7.999L5.816,-5.858L2.129,-1.283L7.913,-2.311L7.96,2.056L2.156,1.195L6.025,5.646L2.019,7.999L-0.014,2.562L-1.846,7.999L-5.732,5.899L-2.087,1.198L-7.913,2.227L-7.96,-2.182L-2.113,-1.237Z" /></g></g></g></g></g></svg>